PathFileType	4	(X/Y/Z)	/Users/itak/Documents/Research/Walk-IL/dataset/trc/00507_00183.trc
DataRate	CameraRate	NumFrames	NumMarkers	Units	OrigDataRate	OrigDataStartFrame	OrigNumFrames
100.000000	100.000000	4	53	mm	100.000000	255	341
Frame#	Time	RPSI			LPSI			L3			STRN			T10			C7			CLAV			RBAK			LBAK			LSHO			LUPA			LAEL			LAOL			LWTS			LWPS			LFRA			LIFD			LHPS			LHTS			RSHO			RUPA			RAEL			RAOL			RWTS			RWPS			RFRA			RIFD			RHTS			RHPS			RBHD			LFHD			RFHD			LBHD			LHIP			RASI			LASI			LKNE			LTHI			LANK			LTIP			LTOE			LMT1			LMT5			LHEE			RKNE			RTHI			RANK			RTIP			RTOE			RMT1			RMT5			RHEE			RHIP			
		X1	Y1	Z1	X2	Y2	Z2	X3	Y3	Z3	X4	Y4	Z4	X5	Y5	Z5	X6	Y6	Z6	X7	Y7	Z7	X8	Y8	Z8	X9	Y9	Z9	X10	Y10	Z10	X11	Y11	Z11	X12	Y12	Z12	X13	Y13	Z13	X14	Y14	Z14	X15	Y15	Z15	X16	Y16	Z16	X17	Y17	Z17	X18	Y18	Z18	X19	Y19	Z19	X20	Y20	Z20	X21	Y21	Z21	X22	Y22	Z22	X23	Y23	Z23	X24	Y24	Z24	X25	Y25	Z25	X26	Y26	Z26	X27	Y27	Z27	X28	Y28	Z28	X29	Y29	Z29	X30	Y30	Z30	X31	Y31	Z31	X32	Y32	Z32	X33	Y33	Z33	X34	Y34	Z34	X35	Y35	Z35	X36	Y36	Z36	X37	Y37	Z37	X38	Y38	Z38	X39	Y39	Z39	X40	Y40	Z40	X41	Y41	Z41	X42	Y42	Z42	X43	Y43	Z43	X44	Y44	Z44	X45	Y45	Z45	X46	Y46	Z46	X47	Y47	Z47	X48	Y48	Z48	X49	Y49	Z49	X50	Y50	Z50	X51	Y51	Z51	X52	Y52	Z52	X53	Y53	Z53	

256	2.55	1211.611083984375	927.7612915039062	987.4351806640625	1283.0751953125	931.9445190429688	886.7243041992188	1252.557250976562	1018.473510742188	928.619384765625	1434.808837890625	1178.594604492188	1075.22900390625	1245.158813476562	1125.643920898438	928.8150024414062	1283.653198242188	1354.451293945312	970.1156005859375	1404.912231445312	1274.494384765625	1059.429077148438	1192.499389648438	1233.224243164062	1000.481994628906	1316.552124023438	1303.123168945312	880.5902099609375	1436.600708007812	1348.984497070312	887.0209350585938	1480.600830078125	1223.622680664062	838.6810302734375	1521.012329101562	1050.0302734375	849.4357299804688	1439.992553710938	989.5888671875	833.7630615234375	1600.95703125	1052.18408203125	1028.6767578125	1625.796630859375	961.5189819335938	1023.389892578125	1559.82763671875	1031.8115234375	899.7896118164062	1645.758178710938	1011.313781738281	1171.680419921875	1651.954345703125	966.7279052734375	1076.69580078125	1651.102783203125	1031.734375	1088.061767578125	1238.172729492188	1341.771606445312	1121.397705078125	1183.049560546875	1280.849975585938	1146.827758789062	1106.615112304688	1026.0830078125	1139.204345703125	1097.466674804688	1011.598571777344	1074.823974609375	1239.127197265625	861.9879760742188	1210.81005859375	1155.778564453125	826.9759521484375	1213.5712890625	1108.263061523438	975.6050415039062	1150.013793945312	1256.14208984375	702.156494140625	1245.146606445312	1255.026977539062	781.2337036132812	1262.607055664062	1181.13818359375	760.4597778320312	1239.6630859375	1256.211181640625	1493.28564453125	1053.2373046875	1431.577270507812	1583.174438476562	1017.116455078125	1349.177490234375	1575.1142578125	1113.104614257812	1348.838012695312	1495.46875	924.1866455078125	1455.064208984375	877.1759643554688	849.4680786132812	1349.53515625	912.110595703125	1157.418090820312	1481.10791015625	925.2424926757812	955.8578491210938	1533.819946289062	477.7494812011719	996.9141235351562	1522.867309570312	631.3509521484375	943.7666625976562	1411.96142578125	55.76737594604492	923.6892700195312	1508.019897460938	324.8384399414062	974.654296875	1537.940185546875	22.81412887573242	1083.610107421875	1457.642333984375	33.91119384765625	1064.915649414062	1505.89599609375	33.43056869506836	976.1934204101562	1338.9873046875	56.81627655029297	946.5263671875	1407.712768554688	499.0442810058594	1218.417724609375	1301.447265625	736.5293579101562	1197.817138671875	1386.6845703125	54.05510711669922	1217.400634765625	1432.186889648438	359.0061340332031	1238.499389648438	1573.978149414062	46.83266830444336	1294.225341796875	1542.05126953125	51.0953483581543	1226.00732421875	1471.198486328125	44.49735260009766	1292.383666992188	1369.325073242188	47.70454788208008	1148.752075195312	1241.905639648438	848.5123901367188	1159.837646484375	
257	2.56	1217.933959960938	931.6148681640625	996.9082641601562	1288.218627929688	935.6500854492188	895.3949584960938	1257.547729492188	1021.460815429688	937.354736328125	1440.480834960938	1183.566528320312	1079.688842773438	1249.214477539062	1128.307250976562	936.6458129882812	1287.288696289062	1357.528076171875	975.2884521484375	1409.907348632812	1279.24072265625	1063.507080078125	1196.906860351562	1236.404174804688	1007.849548339844	1318.764404296875	1305.595092773438	885.9595336914062	1438.424438476562	1352.055541992188	889.9229125976562	1482.2626953125	1226.845458984375	841.1891479492188	1523.760131835938	1053.512084960938	853.274169921875	1442.89501953125	992.7147827148438	838.6316528320312	1603.650146484375	1058.401245117188	1033.353759765625	1630.422973632812	968.2304077148438	1028.495361328125	1562.727661132812	1036.622314453125	903.5784912109375	1645.7763671875	1018.420104980469	1177.826049804688	1655.55029296875	973.988037109375	1082.30517578125	1653.077880859375	1038.860473632812	1093.962524414062	1243.845703125	1346.1044921875	1126.914428710938	1188.8486328125	1286.232666015625	1153.152709960938	1110.092895507812	1031.529418945312	1145.425170898438	1101.569091796875	1017.806030273438	1080.942626953125	1237.732299804688	863.0264282226562	1216.51123046875	1153.808471679688	829.51806640625	1217.0244140625	1110.391845703125	980.5734252929688	1155.619506835938	1251.616821289062	702.6231689453125	1248.945068359375	1251.927734375	783.2355346679688	1268.771118164062	1177.599609375	762.4668579101562	1243.075561523438	1261.2001953125	1497.33544921875	1058.216796875	1437.113647460938	1586.517822265625	1023.148193359375	1354.660278320312	1577.916381835938	1119.061157226562	1353.854736328125	1500.394897460938	929.1826782226562	1459.845458984375	881.3510131835938	856.0142822265625	1357.700439453125	915.2227172851562	1165.087036132812	1486.891967773438	929.3887329101562	962.1467895507812	1539.567993164062	480.584228515625	999.2070922851562	1528.413330078125	634.7402954101562	947.6839599609375	1413.446533203125	59.37225341796875	924.1510009765625	1512.206298828125	328.22509765625	975.8821411132812	1537.960693359375	22.86786460876465	1083.473754882812	1458.74267578125	35.36118316650391	1065.050537109375	1506.781494140625	34.05721282958984	976.2096557617188	1340.803100585938	62.38141250610352	947.447021484375	1410.423095703125	498.5221862792969	1221.695678710938	1308.85009765625	739.0751953125	1205.239135742188	1393.869506835938	52.93630218505859	1221.09423828125	1436.500122070312	357.9844055175781	1241.079467773438	1582.984741210938	43.17860794067383	1293.713623046875	1549.515380859375	49.0231819152832	1226.231323242188	1480.1572265625	42.3132438659668	1294.08837890625	1375.216430664062	47.20380401611328	1152.636108398438	1250.085815429688	851.4406127929688	1168.411376953125	
258	2.57	1224.07861328125	934.8400268554688	1006.505615234375	1293.171508789062	938.80908203125	904.2079467773438	1262.408081054688	1023.851684570312	946.4148559570312	1446.061767578125	1187.967407226562	1084.078247070312	1253.119995117188	1130.295654296875	944.7984008789062	1290.740478515625	1359.949340820312	980.5543823242188	1414.798828125	1283.406860351562	1067.509765625	1201.144653320312	1238.965454101562	1015.432250976562	1320.697509765625	1307.393310546875	891.4365844726562	1439.937744140625	1354.436645507812	892.66943359375	1483.297729492188	1229.342041015625	843.405029296875	1526.13232421875	1056.138916015625	856.7198486328125	1445.244873046875	995.1995239257812	843.4767456054688	1606.581420898438	1063.273071289062	1037.2783203125	1635.051391601562	973.5911254882812	1032.466186523438	1565.38623046875	1040.341796875	906.8514404296875	1647.072021484375	1023.748291015625	1182.611938476562	1659.543212890625	979.7132568359375	1086.57275390625	1655.689331054688	1044.432250976562	1098.607788085938	1249.49560546875	1349.85498046875	1132.513061523438	1194.66552734375	1290.97705078125	1159.638916015625	1113.767578125	1036.349365234375	1152.16748046875	1105.751831054688	1023.260986328125	1087.665771484375	1236.928100585938	863.8323974609375	1222.564819335938	1152.552001953125	831.6050415039062	1220.86083984375	1112.862670898438	984.9241943359375	1161.809448242188	1248.188720703125	703.0454711914062	1253.063110351562	1249.339477539062	784.4303588867188	1274.580078125	1174.993896484375	764.1146240234375	1246.77490234375	1265.97265625	1500.776489257812	1063.016235351562	1442.41650390625	1589.24951171875	1028.882202148438	1359.90234375	1580.226684570312	1124.709716796875	1358.684204101562	1504.535034179688	934.0239868164062	1464.386596679688	884.9785766601562	862.5143432617188	1365.736450195312	917.5783081054688	1172.799438476562	1492.51611328125	932.8673095703125	968.4120483398438	1546.037231445312	483.2046508789062	1001.731018066406	1534.200561523438	637.7867431640625	951.5668334960938	1415.315185546875	63.15182495117188	924.3870849609375	1517.056274414062	331.5344543457031	977.3239135742188	1538.030395507812	22.94070434570312	1083.254516601562	1459.973754882812	36.95326995849609	1065.080810546875	1507.822509765625	34.60407257080078	976.1024169921875	1343.054809570312	68.18161010742188	948.1843872070312	1413.185546875	497.8217163085938	1224.98876953125	1316.134643554688	741.1119384765625	1212.688720703125	1398.948608398438	52.19708251953125	1223.218872070312	1440.193481445312	356.7710571289062	1243.231079101562	1589.354858398438	39.50379943847656	1292.49658203125	1554.67529296875	46.64643478393555	1225.660766601562	1486.541015625	40.50134658813477	1294.684204101562	1379.236206054688	46.92483139038086	1154.90673828125	1258.199829101562	853.614501953125	1176.879150390625	
259	2.58	1230.037841796875	937.4066772460938	1016.12353515625	1297.944702148438	941.37353515625	913.0760498046875	1267.169799804688	1025.652221679688	955.693359375	1451.579467773438	1191.717163085938	1088.443603515625	1256.942626953125	1131.627685546875	953.2271118164062	1294.079711914062	1361.713989257812	985.960693359375	1419.63134765625	1286.917724609375	1071.50634765625	1205.280151367188	1240.90185546875	1023.209228515625	1322.46923828125	1308.551513671875	897.0473022460938	1441.271240234375	1356.129272460938	895.3986206054688	1483.836791992188	1231.107788085938	845.486572265625	1528.153442382812	1057.9375	859.86767578125	1447.10888671875	997.03369140625	848.3155517578125	1609.836303710938	1066.782470703125	1040.490600585938	1639.652465820312	977.5372314453125	1035.385986328125	1567.8310546875	1042.96484375	909.70556640625	1649.8662109375	1027.343627929688	1186.08251953125	1663.967651367188	983.8576049804688	1089.577514648438	1659.069091796875	1048.427978515625	1102.015502929688	1255.141479492188	1352.980346679688	1138.244018554688	1200.519775390625	1294.981567382812	1166.316772460938	1117.636840820312	1040.48046875	1159.434692382812	1109.990600585938	1027.900268554688	1094.979125976562	1236.720581054688	864.3028564453125	1229.000610351562	1151.976440429688	833.1741943359375	1225.169189453125	1115.663940429688	988.5931396484375	1168.59228515625	1245.785400390625	703.2876586914062	1257.515502929688	1247.163940429688	784.4935913085938	1279.916625976562	1173.270874023438	765.2880249023438	1250.803344726562	1270.554321289062	1503.568481445312	1067.655029296875	1447.501708984375	1591.35888671875	1034.312255859375	1364.912231445312	1582.05908203125	1130.040893554688	1363.358520507812	1507.820678710938	938.7390747070312	1468.694946289062	887.9876708984375	868.9598388671875	1373.587768554688	919.22607421875	1180.503662109375	1497.957153320312	935.6502685546875	974.64111328125	1553.133422851562	485.5261840820312	1004.458312988281	1540.177734375	640.4138793945312	955.4292602539062	1417.548706054688	67.02237701416016	924.3785400390625	1522.494506835938	334.6893310546875	978.9370727539062	1538.18994140625	23.0488224029541	1082.93701171875	1461.347900390625	38.67752456665039	1065.00732421875	1509.01220703125	35.06532287597656	975.8615112304688	1345.729858398438	74.14217376708984	948.7252807617188	1415.96484375	496.9030151367188	1228.259033203125	1323.25146484375	742.6203002929688	1220.112548828125	1402.257202148438	51.65535354614258	1224.109619140625	1443.359985351562	355.3147888183594	1245.065551757812	1593.454711914062	36.10297393798828	1290.989135742188	1557.876953125	44.15145874023438	1224.678466796875	1490.689086914062	39.02851867675781	1294.568969726562	1381.724731445312	46.65793991088867	1155.922119140625	1266.228271484375	855.0949096679688	1185.199340820312	
